<?xml version="1.0" encoding="iso-8859-1"?>
<!-- Generator: Adobe Illustrator 22.1.0, SVG Export Plug-In . SVG Version: 6.00 Build 0)  -->
<svg version="1.1" xmlns="http://www.w3.org/2000/svg" xmlns:xlink="http://www.w3.org/1999/xlink" x="0px" y="0px"
	 viewBox="0 0 597 242" style="enable-background:new 0 0 597 242;" xml:space="preserve">
<g id="&#x30EC;&#x30A4;&#x30E4;&#x30FC;_1">
	<text transform="matrix(1 0 0 1 8.7778 183)" style="font-family:'GreatDayPersonalUse'; font-size:150px;">Chatsumi</text>
</g>
<g id="&#x30EC;&#x30A4;&#x30E4;&#x30FC;_2">
	<path style="fill:none;stroke:#E70082;stroke-width:7;stroke-miterlimit:10;" d="M175.5,76.5c0,0,72-29,39-57
		s-160.873,56.049-189,119c-21,47-7,77,13,85c18.312,7.325,55,14,129-58"/>
	<path style="fill:none;stroke:#E70082;stroke-width:7;stroke-miterlimit:10;" d="M257.5,59.5c0,0-85,115-83,122"/>
	<path style="fill:none;stroke:#E70082;stroke-width:7;stroke-miterlimit:10;" d="M172.5,182.5c0,0,88-86,53-34
		c-32.212,47.858-9.908,30.605,18,12"/>
	<path style="fill:none;stroke:#E70082;stroke-width:6;stroke-miterlimit:10;" d="M330,173c0,0,8,22,46-13"/>
	<path style="fill:none;stroke:#E70082;stroke-width:6;stroke-miterlimit:10;" d="M364.5,125.5c0,0-26,17-13,31S345,189,330,173"/>
	<path style="fill:none;stroke:#E70082;stroke-width:6;stroke-miterlimit:10;" d="M289,139c0,0,17-22-14.5-7.5
		c0,0-24.069,11.207-32,35c-7.5,22.5,23-2,23-2L286,143c0,0-51,64,10.5,16.5c0,0,7-7,12-16S364,60,364,60s-139,186-29.5,95.5
		L366,124"/>
	<path style="fill:none;stroke:#E70082;stroke-width:7;stroke-miterlimit:10;" d="M463.5,181.5l48-43c0,0,20-14,8,3
		c-8.012,11.35-13.147,17.331-17,26c-4,9-6,17,7,10c11.032-5.94,26-17,26-17"/>
	<path style="fill:none;stroke:#E70082;stroke-width:7;stroke-miterlimit:10;" d="M436.5,179.5l45-40c0,0,24-19,7,6
		c-15.44,22.707-25,36-25,36"/>
	<line style="fill:none;stroke:#E70082;stroke-width:7;stroke-miterlimit:10;" x1="464.5" y1="126.5" x2="433.5" y2="183.5"/>
	<path style="fill:none;stroke:#E70082;stroke-width:7;stroke-miterlimit:10;" d="M405.5,127.5c0,0-50,50-31,52c0,0,9,0,22-14
		s34-37,34-37l-31,35c0,0-12,25,5,13c13.597-9.598,31.477-21.477,37-27c6-6,25-25,25-25"/>
	<path style="fill:none;stroke:#E70082;stroke-width:7;stroke-miterlimit:10;" d="M558.5,126.5c0,0-67,91,5,34"/>
	<line style="fill:none;stroke:#E70082;stroke-width:7;stroke-miterlimit:10;" x1="322" y1="94.5" x2="363" y2="94.5"/>
	<polygon style="fill:#E70082;" points="575.836,118.344 569.814,110.799 560.184,111.482 565.499,103.423 561.872,94.476 
		571.18,97.04 578.569,90.826 579.006,100.471 587.199,105.578 578.162,108.974 	"/>
</g>
</svg>
